<?xml version="1.0" encoding="utf-8"?>
<!-- Generator: Adobe Illustrator 19.2.0, SVG Export Plug-In . SVG Version: 6.00 Build 0)  -->
<svg version="1.1" id="pinpointstar" xmlns="http://www.w3.org/2000/svg" xmlns:xlink="http://www.w3.org/1999/xlink" x="0px"
	 y="0px" viewBox="0 0 152 224" enable-background="new 0 0 152 224" xml:space="preserve">
<g>
	<path fill="none" d="M76,24c-28.672,0-52,23.328-52,52s23.328,52,52,52s52-23.328,52-52S104.672,24,76,24z M105.4219,66.2108
		l-11.8088,11.512l2.7852,16.2536c0.258,1.5-0.3592,3.0156-1.59,3.9104c-0.6992,0.5076-1.5232,0.7656-2.3512,0.7656
		c-0.6368,0-1.2776-0.1524-1.8636-0.4608L76,90.5196l-14.5937,7.672c-1.344,0.7148-2.9768,0.5936-4.2148-0.3048
		c-1.2308-0.8948-1.848-2.4104-1.59-3.9104l2.7852-16.2536l-11.8088-11.512c-1.0896-1.0624-1.4804-2.6524-1.0116-4.0976
		c0.4728-1.4492,1.7228-2.504,3.2304-2.7224l16.3164-2.3752l7.3008-14.7852c1.344-2.7344,5.828-2.7344,7.172,0l7.3008,14.7852
		l16.3164,2.3752c1.5076,0.2184,2.7576,1.2732,3.2304,2.7224C106.9023,63.5584,106.5115,65.1484,105.4219,66.2108z"/>
	<path fill="none" d="M80.6443,62.4416L76,53.0352l-4.6445,9.4064c-0.582,1.1796-1.7072,2-3.012,2.1872l-10.3788,1.512l7.5116,7.324
		c0.9416,0.918,1.3712,2.2424,1.1488,3.5392L64.8555,87.34l9.2812-4.8792C74.7227,82.1524,75.3591,82,76,82
		c0.6407,0,1.2771,0.1524,1.8631,0.4608l9.2812,4.8792l-1.7692-10.336c-0.2228-1.2968,0.2068-2.6212,1.1484-3.5392l7.5116-7.324
		l-10.3788-1.512C82.3515,64.4416,81.2263,63.6212,80.6443,62.4416z"/>
	<path fill="none" d="M76,8C38.504,8,8,38.504,8,76c0,40.0156,51.9219,140,68,140c16.0779,0,68-99.9844,68-140
		C144,38.504,113.496,8,76,8z M76,136c-33.0861,0-60-26.914-60-60s26.9139-60,60-60c33.0859,0,60,26.914,60,60S109.0859,136,76,136z
		"/>
	<path d="M76,0C34.0935,0,0,34.0936,0,76c0,38.996,52.0743,148,76,148c23.9255,0,76-109.004,76-148C152,34.0936,117.9063,0,76,0z
		 M76,216C59.9219,216,8,116.0156,8,76C8,38.504,38.504,8,76,8s68,30.504,68,68C144,116.0156,92.0779,216,76,216z"/>
	<path d="M76,16c-33.0861,0-60,26.914-60,60s26.9139,60,60,60c33.0859,0,60-26.914,60-60S109.0859,16,76,16z M76,128
		c-28.672,0-52-23.328-52-52s23.328-52,52-52s52,23.328,52,52S104.672,128,76,128z"/>
	<path d="M103.2031,59.3908l-16.3164-2.3752l-7.3008-14.7852c-1.344-2.7344-5.828-2.7344-7.172,0l-7.3008,14.7852l-16.3164,2.3752
		c-1.5076,0.2184-2.7576,1.2732-3.2304,2.7224c-0.4688,1.4452-0.078,3.0352,1.0116,4.0976l11.8088,11.512l-2.7852,16.2536
		c-0.258,1.5,0.3592,3.0156,1.59,3.9104c1.238,0.8984,2.8708,1.0196,4.2148,0.3048L76,90.5196l14.5935,7.672
		c0.586,0.3084,1.2268,0.4608,1.8636,0.4608c0.828,0,1.652-0.258,2.3512-0.7656c1.2308-0.8948,1.848-2.4104,1.59-3.9104
		l-2.7852-16.2536l11.8088-11.512c1.0896-1.0624,1.4804-2.6524,1.0116-4.0976C105.9607,60.664,104.7107,59.6092,103.2031,59.3908z
		 M86.5235,73.4648c-0.9416,0.918-1.3712,2.2424-1.1484,3.5392l1.7692,10.336l-9.2812-4.8792C77.2771,82.1524,76.6407,82,76,82
		c-0.6409,0-1.2773,0.1524-1.8633,0.4608L64.8555,87.34l1.7696-10.336c0.2224-1.2968-0.2072-2.6212-1.1488-3.5392l-7.5116-7.324
		l10.3788-1.512c1.3048-0.1872,2.43-1.0076,3.012-2.1872L76,53.0352l4.6443,9.4064c0.582,1.1796,1.7072,2,3.012,2.1872
		l10.3788,1.512L86.5235,73.4648z"/>
</g>
</svg>
