<?xml version="1.0" encoding="utf-8"?>
<!-- Generator: Adobe Illustrator 19.2.0, SVG Export Plug-In . SVG Version: 6.00 Build 0)  -->
<svg version="1.1" id="smartphone" xmlns="http://www.w3.org/2000/svg" xmlns:xlink="http://www.w3.org/1999/xlink" x="0px" y="0px"
	 viewBox="0 0 124 224" enable-background="new 0 0 124 224" xml:space="preserve">
<g>
	<path fill="none" d="M8,212.002C8,214.244,9.744,216,11.9728,216h100.0544c2.1916,0,3.9728-1.7928,3.9728-3.998V184H8V212.002z
		 M64,188c6.6172,0,12,5.3828,12,12s-5.3828,12-12,12s-12-5.3828-12-12S57.3828,188,64,188z"/>
	<circle fill="none" cx="64" cy="200" r="4"/>
	<path fill="none" d="M116,12.0156C116,9.8008,114.2188,8,112.0272,8H11.9728C9.7812,8,8,9.8008,8,12.0156v163.8888h108V12.0156z
		 M64.1016,72.2832l-5.758-5.5548l42.8088-44.3848l5.7576,5.5548L64.1016,72.2832z"/>
	<path d="M112.0272,0H11.9728C5.3712,0,0,5.3908,0,12.0156V176v7.9044v28.0976C0,218.6172,5.3712,224,11.9728,224h100.0544
		C118.6288,224,124,218.6172,124,212.002v-28.0976V176V12.0156C124,5.3908,118.6288,0,112.0272,0z M116,212.002
		c0,2.2052-1.7812,3.998-3.9728,3.998H11.9728C9.744,216,8,214.244,8,212.002V184h108V212.002z M8,12.0156
		C8,9.8008,9.7812,8,11.9728,8h100.0544C114.2188,8,116,9.8008,116,12.0156v163.8888H8V12.0156z"/>
	<path d="M64,212c6.6172,0,12-5.3828,12-12s-5.3828-12-12-12s-12,5.3828-12,12S57.3828,212,64,212z M64,196c2.2052,0,4,1.7948,4,4
		s-1.7948,4-4,4s-4-1.7948-4-4S61.7948,196,64,196z"/>
	
		<rect x="51.7943" y="43.3131" transform="matrix(0.6943 -0.7197 0.7197 0.6943 -8.7915 73.9299)" width="61.6651" height="8.0005"/>
</g>
</svg>
