<?xml version="1.0" encoding="utf-8"?>
<!-- Generator: Adobe Illustrator 19.2.0, SVG Export Plug-In . SVG Version: 6.00 Build 0)  -->
<svg version="1.1" id="maildistribute" xmlns="http://www.w3.org/2000/svg" xmlns:xlink="http://www.w3.org/1999/xlink" x="0px"
	 y="0px" viewBox="0 0 200.9685 192.9688" enable-background="new 0 0 200.9685 192.9688" xml:space="preserve">
<g>
	<path fill="none" d="M48.352,42.2236L10.748,8.258C9.1611,8.7968,8,10.248,8,12.004v73.9344L48.352,42.2236z"/>
	<polygon fill="none" points="125.6055,8 22.3943,8 74,54.6092 	"/>
	<path fill="none" d="M137.252,8.258L99.648,42.2236L140,85.9384V12.004C140,10.248,138.8387,8.7968,137.252,8.258z"/>
	<path fill="none" d="M134.712,92L93.7127,47.584L76.6795,62.9688C75.9179,63.6564,74.9607,64,74,64
		c-0.9609,0-1.9181-0.3436-2.6797-1.0312L54.2871,47.584L13.288,92H134.712z"/>
	<path d="M148,87.996V12.004c0-6.588-5.3501-11.9436-11.9397-11.9944C136.0395,0.0088,136.0207,0,136,0h-0.0313H12.0311H12
		c-0.0209,0-0.0397,0.0088-0.0605,0.0096C5.3499,0.0604,0,5.416,0,12.004v75.992C0,94.6152,5.3983,100,12.0311,100h123.9376
		C142.6015,100,148,94.6152,148,87.996z M71.3203,62.9688C72.0819,63.6564,73.0391,64,74,64c0.9607,0,1.9179-0.3436,2.6795-1.0312
		L93.7127,47.584L134.712,92H13.288l40.9991-44.416L71.3203,62.9688z M140,85.9384L99.648,42.2236L137.252,8.258
		c1.5867,0.5388,2.748,1.99,2.748,3.746V85.9384z M125.6055,8L74,54.6092L22.3943,8H125.6055z M10.748,8.258l37.604,33.9656
		L8,85.9384V12.004C8,10.248,9.1611,8.7968,10.748,8.258z"/>
	<path d="M199.7967,129.17l-16.9687-16.9708c-1.5625-1.5624-4.0937-1.5624-5.656,0c-1.5629,1.5624-1.5629,4.0936,0,5.6564
		L187.3147,128H110v8h77.3111l-10.1391,10.1408c-1.5629,1.5624-1.5629,4.0936,0,5.656c0.7811,0.7812,1.8043,1.172,2.828,1.172
		c1.0235,0,2.0467-0.3908,2.828-1.172l16.9687-16.9708C201.3591,133.2636,201.3591,130.7324,199.7967,129.17z"/>
	<path d="M54.828,157.8556c1.5627-1.5628,1.5627-4.094,0-5.6564c-1.5625-1.5624-4.0937-1.5624-5.656,0L32.2031,169.17
		c-1.5624,1.5624-1.5624,4.0936,0,5.656l16.9689,16.9708c0.7811,0.7812,1.8043,1.172,2.828,1.172
		c1.0235,0,2.0467-0.3908,2.828-1.172c1.5627-1.5624,1.5627-4.0936,0-5.656L44.6887,176H122v-8H44.6851L54.828,157.8556z"/>
</g>
</svg>
